<svg width="48" height="48" version="1.1" xmlns="http://www.w3.org/2000/svg" desc="Created with imagetracer.js version 1.2.6" ><path fill="rgb(251,195,0)" stroke="rgb(251,195,0)" stroke-width="1" opacity="0.8235294117647058" d="M 14.5 8 L 13.5 10 L 14.5 8 Z " /><path fill="rgb(251,195,0)" stroke="rgb(251,195,0)" stroke-width="1" opacity="0.8235294117647058" d="M 9.5 13 L 8.5 15 L 9.5 13 Z " /><path fill="rgb(251,195,0)" stroke="rgb(251,195,0)" stroke-width="1" opacity="0.8235294117647058" d="M 16.5 13 L 13.5 17 L 16.5 13 Z " /><path fill="rgb(251,195,0)" stroke="rgb(251,195,0)" stroke-width="1" opacity="0.8235294117647058" d="M 33.5 15 L 34.5 17 L 33.5 15 Z " /><path fill="rgb(251,195,0)" stroke="rgb(251,195,0)" stroke-width="1" opacity="0.8235294117647058" d="M 35.5 29 L 36 30.5 L 34 31.5 L 35.5 29 Z " /><path fill="rgb(251,195,0)" stroke="rgb(251,195,0)" stroke-width="1" opacity="0.8235294117647058" d="M 13.5 31 L 16.5 35 L 13.5 31 Z " /><path fill="rgb(251,195,0)" stroke="rgb(251,195,0)" stroke-width="1" opacity="0.8235294117647058" d="M 8.5 33 L 9.5 35 L 8.5 33 Z " /><path fill="rgb(251,195,0)" stroke="rgb(251,195,0)" stroke-width="1" opacity="0.8235294117647058" d="M 13.5 38 L 14.5 40 L 13.5 38 Z " /><path fill="rgb(0,0,0)" stroke="rgb(0,0,0)" stroke-width="1" opacity="0" d="M 0 0 L 48 0 L 48 48 L 0 48 L 0 0 Z M 21 5 L 12 9 Q 6 13 5 21 Q 4 31 9 37 Q 13 42 21 43 Q 31 44 36 40 L 42 33 L 43 29 Q 45 17 39 12 Q 38 9 37 11 L 36 8 Q 31 4 21 5 Z " /><path fill="rgb(0,0,0)" stroke="rgb(0,0,0)" stroke-width="1" opacity="0" d="M 21.5 12 Q 29.9 11.1 33 15.5 Q 37.3 18.7 36 27.5 L 33 33 L 26.5 36 L 21.5 36 L 14 30.5 Q 11.2 27.8 12 21.5 L 16.5 15 L 21.5 12 Z " /><path fill="rgb(185,145,16)" stroke="rgb(185,145,16)" stroke-width="1" opacity="0.9725490196078431" d="M 34.5 10 L 40 14.5 L 38.5 17 L 35.5 15 L 34 15.5 Q 34.7 12.5 31 14 L 31 11 L 34.5 10 Z " /><path fill="rgb(185,145,16)" stroke="rgb(185,145,16)" stroke-width="1" opacity="0.9725490196078431" d="M 36 19 L 40 19 L 40 20.5 L 41 22.5 L 40.5 24 Q 42.8 23.3 42 25.5 L 41 29 L 36 29 L 36 27.5 Q 38.3 26.2 37 21.5 L 36 19 Z M 40 21 L 38 24 L 40 23 L 40 21 Z " /><path fill="rgb(185,145,16)" stroke="rgb(185,145,16)" stroke-width="1" opacity="0.9725490196078431" d="M 38.5 32 L 40 32.5 L 38.5 35 L 37 34.5 L 37 37 Q 34 36 35 39 L 32.5 39 L 30 38.5 L 31 34 Q 36.3 35 38.5 32 Z " /><path fill="rgb(157,123,18)" stroke="rgb(157,123,18)" stroke-width="1" opacity="0.3058823529411765" d="M 37.5 10 L 38.5 12 Q 35.7 12.7 37.5 10 Z " /><path fill="rgb(157,123,18)" stroke="rgb(157,123,18)" stroke-width="1" opacity="0.3058823529411765" d="M 39.5 13 L 41 15.5 L 40 15.5 L 39.5 13 Z " /><path fill="rgb(157,123,18)" stroke="rgb(157,123,18)" stroke-width="1" opacity="0.3058823529411765" d="M 42.5 23 L 43 25.5 L 42 25.5 L 42.5 23 Z " /><path fill="rgb(157,123,18)" stroke="rgb(157,123,18)" stroke-width="1" opacity="0.3058823529411765" d="M 39.5 34 L 39 35.5 L 38.5 37 L 38 35.5 L 39.5 34 Z " /><path fill="rgb(250,195,0)" stroke="rgb(250,195,0)" stroke-width="1" opacity="0.996078431372549" d="M 20.5 6 Q 30.6 4.9 35 9.5 L 31 11 L 30.5 13 Q 27.9 9.6 20.5 11 L 13 16.5 Q 9.8 19.8 11 27.5 L 16.5 35 Q 19.8 38.2 27.5 37 L 30.5 36 L 30 37.5 L 30.5 39 L 32.5 36 L 33 37.5 L 32.5 40 Q 28.5 43 20.5 42 L 10 35.5 Q 4.8 31.2 6 20.5 L 12.5 10 L 20.5 6 Z " /><path fill="rgb(250,195,0)" stroke="rgb(250,195,0)" stroke-width="1" opacity="0.996078431372549" d="M 35 15 L 38.5 17 Q 39.8 14.7 41 17.5 L 42 24 L 39.5 23 L 38 23.5 L 40 19 L 36 19 L 36 17.5 L 35 15 Z " /><path fill="rgb(250,195,0)" stroke="rgb(250,195,0)" stroke-width="1" opacity="0.996078431372549" d="M 39.5 25 L 38.5 27 L 39.5 25 Z " /><path fill="rgb(250,195,0)" stroke="rgb(250,195,0)" stroke-width="1" opacity="0.996078431372549" d="M 36.5 29 Q 41.9 27.1 41 30.5 L 33.5 34 L 35.5 31 L 37 30.5 L 36.5 29 Z " /><path fill="rgb(248,186,0)" stroke="rgb(248,186,0)" stroke-width="1" opacity="0.2235294117647059" d="M 20.5 5 L 29 5.5 L 20.5 6 L 20.5 5 Z " /><path fill="rgb(248,186,0)" stroke="rgb(248,186,0)" stroke-width="1" opacity="0.2235294117647059" d="M 16.5 6 L 19 6.5 Q 11.1 8.1 8 14.5 L 6.5 19 L 6 16.5 L 11.5 9 L 16.5 6 Z " /><path fill="rgb(248,186,0)" stroke="rgb(248,186,0)" stroke-width="1" opacity="0.2235294117647059" d="M 30.5 6 L 36 8 L 35.5 10 L 30.5 7 L 30.5 6 Z " /><path fill="rgb(248,186,0)" stroke="rgb(248,186,0)" stroke-width="1" opacity="0.2235294117647059" d="M 22.5 11 L 26 11.5 L 22.5 12 L 22.5 11 Z " /><path fill="rgb(248,186,0)" stroke="rgb(248,186,0)" stroke-width="1" opacity="0.2235294117647059" d="M 19.5 12 L 21 12.5 L 15 16.5 L 12.5 21 L 12 19.5 L 17.5 13 L 19.5 12 Z " /><path fill="rgb(248,186,0)" stroke="rgb(248,186,0)" stroke-width="1" opacity="0.2235294117647059" d="M 41.5 15 L 42 17.5 L 41 17.5 L 41.5 15 Z " /><path fill="rgb(248,186,0)" stroke="rgb(248,186,0)" stroke-width="1" opacity="0.2235294117647059" d="M 42.5 19 L 43 22.5 L 42 22.5 L 42.5 19 Z " /><path fill="rgb(248,186,0)" stroke="rgb(248,186,0)" stroke-width="1" opacity="0.2235294117647059" d="M 5.5 20 L 6 27.5 L 5 27.5 L 5.5 20 Z " /><path fill="rgb(248,186,0)" stroke="rgb(248,186,0)" stroke-width="1" opacity="0.2235294117647059" d="M 11.5 22 L 12 25.5 L 11 25.5 L 11.5 22 Z " /><path fill="rgb(248,186,0)" stroke="rgb(248,186,0)" stroke-width="1" opacity="0.2235294117647059" d="M 42.5 26 L 43 28.5 L 42 28.5 L 42.5 26 Z " /><path fill="rgb(248,186,0)" stroke="rgb(248,186,0)" stroke-width="1" opacity="0.2235294117647059" d="M 12.5 27 L 17.5 34 L 21 35.5 L 19.5 36 L 13 30.5 L 12.5 27 Z " /><path fill="rgb(248,186,0)" stroke="rgb(248,186,0)" stroke-width="1" opacity="0.2235294117647059" d="M 6.5 29 Q 8.1 36.9 14.5 40 L 19 41.5 L 16.5 42 L 9 36.5 Q 4.8 33.9 6.5 29 Z " /><path fill="rgb(248,186,0)" stroke="rgb(248,186,0)" stroke-width="1" opacity="0.2235294117647059" d="M 34.5 30 L 34 31.5 L 32.5 34 L 33 32.5 L 34.5 30 Z " /><path fill="rgb(248,186,0)" stroke="rgb(248,186,0)" stroke-width="1" opacity="0.2235294117647059" d="M 41.5 30 L 42 32.5 L 40 33.5 L 41.5 30 Z " /><path fill="rgb(248,186,0)" stroke="rgb(248,186,0)" stroke-width="1" opacity="0.2235294117647059" d="M 29.5 34 L 31 34.5 L 27.5 36 L 27.5 35 L 29.5 34 Z " /><path fill="rgb(248,186,0)" stroke="rgb(248,186,0)" stroke-width="1" opacity="0.2235294117647059" d="M 22.5 36 L 26 36.5 L 22.5 37 L 22.5 36 Z " /><path fill="rgb(248,186,0)" stroke="rgb(248,186,0)" stroke-width="1" opacity="0.2235294117647059" d="M 32.5 40 L 34 40.5 L 30.5 42 L 30.5 41 L 32.5 40 Z " /><path fill="rgb(248,186,0)" stroke="rgb(248,186,0)" stroke-width="1" opacity="0.2235294117647059" d="M 20.5 42 L 29 42.5 L 20.5 43 L 20.5 42 Z " /></svg>